<svg width="76" height="76" viewBox="0 0 76 76" fill="none" xmlns="http://www.w3.org/2000/svg">
<path fill-rule="evenodd" clip-rule="evenodd" d="M74.4235 27.4146C80.1225 47.3258 68.6014 68.0868 48.6901 73.7858C28.7789 79.4847 8.01788 67.9636 2.31888 48.0523C-3.38008 28.1412 8.14118 7.38008 28.0523 1.68112C47.9636 -4.01788 68.7246 7.50341 74.4235 27.4146ZM26.9994 34.343C30.3914 33.3721 32.3544 29.835 31.3834 26.4426C30.4125 23.0505 26.8753 21.0875 23.4833 22.0584C20.0909 23.0293 18.128 26.5666 19.0988 29.9586C20.0698 33.351 23.607 35.314 26.9994 34.343ZM46.2271 28.8397C49.6195 27.8687 51.5824 24.3315 50.6114 20.9391C49.6405 17.5471 46.1034 15.5841 42.711 16.555C39.3189 17.5259 37.356 21.0631 38.3269 24.4552C39.2978 27.8476 42.835 29.8105 46.2271 28.8397ZM42.2307 50.2086C33.9714 52.5726 25.3594 47.7933 22.9954 39.534L16.586 41.3685C19.9631 53.1676 32.2662 59.9951 44.0652 56.618C55.8646 53.2408 62.6918 40.9378 59.3147 29.1387L52.9053 30.9732C55.2692 39.2325 50.4903 47.8445 42.2307 50.2086Z" fill="#FD5A46"/>
</svg>
