<svg width="118" height="118" viewBox="0 0 118 118" fill="none" xmlns="http://www.w3.org/2000/svg">
<path d="M22.5708 3.28683C7.34378 18.5925 -0.379928 35.5963 5.31922 41.2662C11.0184 46.9361 27.9823 39.1249 43.2093 23.8193C51.7428 15.2416 56.705 6.34227 54.2925 3.94214C51.8799 1.542 43.0063 6.54995 34.4727 15.1276C19.2457 30.4332 11.522 47.4371 17.2212 53.107C22.9203 58.7769 39.8843 50.9658 55.1113 35.6602C63.6449 27.0825 68.607 18.1831 66.1944 15.7829C63.7819 13.3828 54.9082 18.3907 46.3746 26.9684C31.1476 42.274 23.4523 59.3061 29.1864 65.0107C34.9205 70.7153 51.9128 62.9325 67.1398 47.6269C75.6734 39.0492 80.6355 30.1498 78.2229 27.7496C75.8103 25.3494 66.937 30.3576 58.4034 38.9353C43.1764 54.2409 35.4525 71.2446 41.1517 76.9145C46.8508 82.5844 63.8145 74.7731 79.0415 59.4674C87.5751 50.8898 92.5376 41.9907 90.125 39.5905C87.7124 37.1903 78.8386 42.1982 70.305 50.7758C55.078 66.0815 47.3545 83.0855 53.0537 88.7554C58.7529 94.4253 75.7166 86.6139 90.9436 71.3083C99.4771 62.7306 104.439 53.8312 102.027 51.4314C99.6144 49.0312 90.7407 54.0391 82.2071 62.6167C66.9801 77.9224 59.2566 94.9264 64.9554 100.596C70.6546 106.266 87.6186 98.4548 102.846 83.1492C111.379 74.5715 116.341 65.6721 113.929 63.2719C111.516 60.8721 102.643 65.8799 94.1091 74.4576C78.8821 89.7632 71.1866 106.795 76.9207 112.5C82.6547 118.204 99.6471 110.422 114.874 95.1159" stroke="#4A4947" stroke-width="6" stroke-linecap="round"/>
</svg>
